<?xml version="1.0" encoding="UTF-8" standalone="no"?>
<svg
   width="330"
   zoomAndPan="magnify"
   viewBox="0 0 247.5 89.999998"
   height="120"
   preserveAspectRatio="xMidYMid"
   version="1.2"
   id="svg63"
   sodipodi:docname="SyncAPp.svg"
   inkscape:version="1.4.2 (1:1.4.2+202505120737+ebf0e940d0)"
   xmlns:inkscape="http://www.inkscape.org/namespaces/inkscape"
   xmlns:sodipodi="http://sodipodi.sourceforge.net/DTD/sodipodi-0.dtd"
   xmlns="http://www.w3.org/2000/svg"
   xmlns:svg="http://www.w3.org/2000/svg">
  <sodipodi:namedview
     id="namedview63"
     pagecolor="#505050"
     bordercolor="#eeeeee"
     borderopacity="1"
     inkscape:showpageshadow="0"
     inkscape:pageopacity="0"
     inkscape:pagecheckerboard="0"
     inkscape:deskcolor="#505050"
     inkscape:zoom="0.968"
     inkscape:cx="250"
     inkscape:cy="250"
     inkscape:window-width="1366"
     inkscape:window-height="692"
     inkscape:window-x="0"
     inkscape:window-y="0"
     inkscape:window-maximized="1"
     inkscape:current-layer="svg63" />
  <defs
     id="defs5">
    <clipPath
       id="c97b480b9f">
      <path
         d="m 64.007812,148.44531 h 69.749998 v 78 H 64.007812 Z m 0,0"
         id="path1" />
    </clipPath>
    <clipPath
       id="49c6f19390">
      <path
         d="m 100,193 h 6 v 8.25 h -6 z m 0,0"
         id="path2" />
    </clipPath>
    <clipPath
       id="a728188dae">
      <path
         d="m 102,182 h 7 v 19.25 h -7 z m 0,0"
         id="path3" />
    </clipPath>
    <clipPath
       id="39f7e3466d">
      <path
         d="m 110,176 h 6.74609 v 15 H 110 Z m 0,0"
         id="path4" />
    </clipPath>
    <clipPath
       id="ae9a892e8d">
      <path
         d="m 91,173.5 h 19 V 181 H 91 Z m 0,0"
         id="path5" />
    </clipPath>
  </defs>
  <g
     id="6e68a89080"
     transform="translate(-58.109503,-142.56198)">
    <g
       clip-rule="nonzero"
       clip-path="url(#c97b480b9f)"
       id="g6">
      <path
         style="fill:#f4d8cd;fill-opacity:1;fill-rule:nonzero;stroke:none"
         d="m 102.94141,226.37891 c -21.464848,0 -38.933598,-17.46485 -38.933598,-38.9336 0,-21.46875 17.46875,-38.93359 38.933598,-38.93359 10.82422,0 21.24218,4.55859 28.58984,12.50781 l 1.99219,2.15234 -15.07422,13.94141 -1.99219,-2.15234 c -3.52734,-3.8125 -8.32422,-5.91407 -13.51562,-5.91407 -10.144535,0 -18.398441,8.25391 -18.398441,18.39844 0,5.48828 2.4375,10.65235 6.679687,14.17188 l -3.742187,4.51562 c -5.59375,-4.63672 -8.804688,-11.44922 -8.804688,-18.6875 0,-13.3789 10.886719,-24.26562 24.265629,-24.26562 5.85547,0 11.33203,2.02734 15.70312,5.75781 l 6.49219,-6 c -6.04688,-5.46875 -13.98438,-8.55859 -22.19531,-8.55859 -18.230472,0 -33.06641,14.83203 -33.06641,33.0664 0,18.23047 14.835938,33.06641 33.06641,33.06641 6.96093,0 13.625,-2.14063 19.26562,-6.19141 1.51172,-1.08203 2.94141,-2.30859 4.26172,-3.64062 l 4.17187,4.125 c -1.54687,1.5664 -3.23437,3.00781 -5.01171,4.28515 -6.64453,4.76953 -14.48828,7.28907 -22.6875,7.28907"
         id="path6" />
    </g>
    <g
       clip-rule="nonzero"
       clip-path="url(#49c6f19390)"
       id="g7">
      <path
         style="fill:#f4d8cd;fill-opacity:1;fill-rule:nonzero;stroke:none"
         d="m 101.19531,201.19531 c -0.14843,0 -0.30078,-0.0469 -0.42578,-0.14062 -0.32422,-0.23828 -0.39453,-0.69141 -0.15625,-1.01563 1.44141,-1.95312 2.4961,-4.13281 3.13672,-6.47656 0.10547,-0.39063 0.50781,-0.61719 0.89453,-0.50391 0.38672,0.10547 0.61719,0.50391 0.50391,0.89063 -0.69141,2.51172 -1.82422,4.85547 -3.3711,6.95703 -0.13671,0.18359 -0.35546,0.28906 -0.58203,0.28906 z m 0,0"
         id="path7" />
    </g>
    <path
       style="fill:#f4d8cd;fill-opacity:1;fill-rule:nonzero;stroke:none"
       d="m 96.820312,199.86719 c -0.15625,0 -0.3125,-0.0508 -0.445312,-0.14844 -0.316406,-0.24609 -0.371094,-0.69922 -0.128906,-1.01563 2.316406,-2.98437 3.585937,-6.70703 3.585937,-10.47656 v -0.77734 c 0,-1.6836 1.335939,-3.08203 2.984379,-3.11719 0.8125,-0.0117 1.59375,0.29688 2.18359,0.87109 0.58594,0.57813 0.91016,1.34766 0.91016,2.16797 v 0.97266 c 0,0.85937 -0.0547,1.72266 -0.15625,2.57812 -0.0508,0.39844 -0.41016,0.6836 -0.8086,0.63282 -0.39843,-0.0508 -0.68359,-0.41016 -0.63281,-0.8086 0.0977,-0.79297 0.14453,-1.60547 0.14453,-2.40234 v -0.97656 c 0,-0.4336 -0.16797,-0.83203 -0.47656,-1.13282 -0.30469,-0.29687 -0.71094,-0.46875 -1.14453,-0.45312 -0.85938,0.0156 -1.5586,0.76562 -1.5586,1.66406 v 0.77735 c 0,4.08984 -1.378902,8.1289 -3.886715,11.36328 -0.144531,0.18359 -0.355469,0.28125 -0.570313,0.28125 z m 0,0"
       id="path8" />
    <g
       clip-rule="nonzero"
       clip-path="url(#a728188dae)"
       id="g9">
      <path
         style="fill:#f4d8cd;fill-opacity:1;fill-rule:nonzero;stroke:none"
         d="m 103.88672,201.19531 c -0.125,0 -0.25,-0.0352 -0.36719,-0.10156 -0.34375,-0.19922 -0.46484,-0.64453 -0.26172,-0.99219 l 0.1836,-0.3164 c 2.08593,-3.58204 3.18359,-7.67188 3.18359,-11.8125 v -0.60547 c 0,-2.03125 -1.65234,-3.71485 -3.68359,-3.75391 -0.39844,-0.008 -0.71875,-0.33984 -0.71094,-0.73828 0.008,-0.39453 0.33594,-0.71094 0.72656,-0.71094 0.008,0 0.0117,0 0.0195,0 2.81641,0.0547 5.10157,2.39063 5.10157,5.20313 v 0.60547 c 0,4.39843 -1.17188,8.73437 -3.37891,12.53906 l -0.18359,0.3164 c -0.13672,0.23047 -0.38282,0.36719 -0.62891,0.36719 z m 0,0"
         id="path9" />
    </g>
    <path
       style="fill:#f4d8cd;fill-opacity:1;fill-rule:nonzero;stroke:none"
       d="m 94.9375,198.65234 c -0.148438,0 -0.296875,-0.043 -0.429688,-0.14453 -0.324218,-0.23828 -0.390624,-0.6914 -0.152343,-1.01562 l 0.542969,-0.73047 c 1.78125,-2.39063 2.765624,-5.35156 2.765624,-8.33594 v -0.96094 c 0,-1.70703 0.828126,-3.32422 2.222657,-4.32812 0.328121,-0.23438 0.777341,-0.16406 1.015621,0.16406 0.23047,0.32813 0.16016,0.77734 -0.16796,1.01563 -1.01563,0.73046 -1.621099,1.91406 -1.621099,3.15625 v 0.96093 c 0,3.28516 -1.078125,6.5586 -3.042969,9.19922 l -0.542968,0.73047 c -0.144532,0.19141 -0.367188,0.28906 -0.589844,0.28906 z m 0,0"
       id="path10" />
    <path
       style="fill:#f4d8cd;fill-opacity:1;fill-rule:nonzero;stroke:none"
       d="m 106.60938,200.85937 c -0.10547,0 -0.21875,-0.0195 -0.31641,-0.0703 -0.36328,-0.17969 -0.51172,-0.60937 -0.33984,-0.97265 l 0.33984,-0.69141 c 1.63672,-3.37109 2.49609,-7.13672 2.49609,-10.88281 v -0.875 c 0,-3.19922 -2.60156,-5.85547 -5.80859,-5.91797 -1.5625,-0.0391 -3.054689,0.57031 -4.19922,1.6914 -1.164062,1.14844 -1.835938,2.73438 -1.835938,4.35938 v 0.75391 c 0,0.78125 -0.07031,1.57031 -0.203124,2.33984 -0.07422,0.39453 -0.449219,0.65625 -0.84375,0.58984 -0.394532,-0.0742 -0.65625,-0.44922 -0.589844,-0.84375 0.125,-0.6875 0.183594,-1.39062 0.183594,-2.08984 v -0.75391 c 0,-2.01562 0.828124,-3.97656 2.273437,-5.39453 1.425781,-1.39453 3.285155,-2.14453 5.242185,-2.10547 3.98438,0.0781 7.22657,3.38282 7.22657,7.3711 v 0.875 c 0,3.96484 -0.91407,7.94922 -2.64454,11.51562 l -0.33984,0.69141 c -0.11328,0.26172 -0.375,0.41015 -0.64062,0.41015 z m 0,0"
       id="path11" />
    <path
       style="fill:#f4d8cd;fill-opacity:1;fill-rule:nonzero;stroke:none"
       d="m 93.398438,197.03516 c -0.140626,0 -0.285157,-0.0391 -0.40625,-0.125 -0.332032,-0.21875 -0.421876,-0.67579 -0.195313,-1.00782 l 0.671875,-1 c 0.503906,-0.74609 0.925781,-1.55859 1.25,-2.40625 0.140625,-0.375 0.558594,-0.55859 0.9375,-0.41406 0.371094,0.14453 0.558594,0.55859 0.414062,0.9375 -0.359374,0.94531 -0.832031,1.85547 -1.402343,2.69531 l -0.671875,0.9961 c -0.136719,0.21093 -0.367188,0.32422 -0.597656,0.32422 z m 0,0"
       id="path12" />
    <path
       style="fill:#f4d8cd;fill-opacity:1;fill-rule:nonzero;stroke:none"
       d="m 109.51563,199.64453 c -0.10157,0 -0.19922,-0.0195 -0.30079,-0.0664 -0.36718,-0.16406 -0.52734,-0.59375 -0.36718,-0.95703 l 0.0859,-0.17968 c 1.33985,-2.98438 2.01563,-6.16016 2.01563,-9.4336 v -1.64062 c 0,-1.79297 -0.57031,-3.48828 -1.65625,-4.91016 -0.24609,-0.31641 -0.18359,-0.76953 0.13281,-1.01172 0.31641,-0.24609 0.76953,-0.18359 1.01563,0.13281 1.28125,1.67188 1.95703,3.67579 1.95703,5.78125 v 1.64844 c 0,3.47656 -0.72266,6.85547 -2.14844,10.02735 l -0.082,0.17968 c -0.10938,0.26953 -0.375,0.42969 -0.65234,0.42969 z m 0,0"
       id="path13" />
    <path
       style="fill:#f4d8cd;fill-opacity:1;fill-rule:nonzero;stroke:none"
       d="m 91.894531,195.34375 c -0.140625,0 -0.285156,-0.0391 -0.40625,-0.125 C 91.15625,195 91.074219,194.54297 91.296875,194.21094 l 0.417969,-0.625 c 1.0625,-1.56641 1.621094,-3.39063 1.621094,-5.28125 v -0.79297 c 0,-5.25391 4.203124,-9.59375 9.375002,-9.67969 2.10156,-0.0312 4.09765,0.60156 5.78125,1.83594 0.32422,0.23828 0.39453,0.6875 0.15625,1.01562 -0.23828,0.32032 -0.6875,0.39453 -1.01563,0.15625 -1.42968,-1.05078 -3.125,-1.59375 -4.90625,-1.55468 -4.38281,0.0742 -7.949216,3.76562 -7.949216,8.23046 v 0.79297 c 0,2.17969 -0.644532,4.28907 -1.863282,6.08985 l -0.421874,0.62109 c -0.136719,0.20703 -0.363282,0.32422 -0.597657,0.32422 z m 0,0"
       id="path14" />
    <path
       style="fill:#f4d8cd;fill-opacity:1;fill-rule:nonzero;stroke:none"
       d="m 112.75391,197.17969 c -0.0781,0 -0.15625,-0.0117 -0.23438,-0.0391 -0.375,-0.1289 -0.58203,-0.54687 -0.45312,-0.92187 0.69922,-2.04688 1.05468,-4.1875 1.05468,-6.35156 v -2.5 c 0,-2.76172 -1.08203,-5.35157 -3.05078,-7.29297 -1.92968,-1.91016 -4.48828,-2.95703 -7.19922,-2.95703 -0.0469,0 -0.0898,0 -0.14062,0 -0.86328,0.0117 -1.71875,0.13281 -2.54297,0.35937 -0.390625,0.10547 -0.789062,-0.12109 -0.894531,-0.5039 -0.105469,-0.38672 0.121093,-0.78516 0.503906,-0.89063 0.945315,-0.26172 1.925785,-0.40234 2.914065,-0.41406 3.15234,-0.0352 6.125,1.16015 8.37109,3.375 2.2461,2.21875 3.48438,5.17187 3.48438,8.32422 v 2.5 c 0,2.32422 -0.38282,4.62109 -1.13282,6.8164 -0.0977,0.30469 -0.3789,0.4961 -0.67968,0.4961 z m 0,0"
       id="path15" />
    <path
       style="fill:#f4d8cd;fill-opacity:1;fill-rule:nonzero;stroke:none"
       d="m 90.707031,193.02344 c -0.109375,0 -0.222656,-0.0234 -0.328125,-0.0781 -0.359375,-0.17578 -0.5,-0.61328 -0.320312,-0.97656 l 0.371094,-0.74219 c 0.484374,-0.95312 0.738281,-2.02344 0.738281,-3.09375 v -0.60547 c 0,-4.33203 2.335937,-8.32031 6.09375,-10.41015 0.351562,-0.19532 0.792969,-0.0664 0.988281,0.28125 0.195312,0.35156 0.06641,0.79687 -0.28125,0.98828 -3.300781,1.83594 -5.355469,5.33984 -5.355469,9.14453 v 0.60547 c 0,1.29687 -0.308593,2.58984 -0.890625,3.75 l -0.371094,0.74219 c -0.121093,0.24609 -0.378906,0.39453 -0.644531,0.39453 z m 0,0"
       id="path16" />
    <g
       clip-rule="nonzero"
       clip-path="url(#39f7e3466d)"
       id="g17">
      <path
         style="fill:#f4d8cd;fill-opacity:1;fill-rule:nonzero;stroke:none"
         d="m 115.88281,190.72656 c -0.0195,0 -0.0391,0 -0.0586,0 -0.39844,-0.0312 -0.69531,-0.375 -0.66406,-0.77344 0.0937,-1.24609 0.1289,-2.58593 0.1289,-2.59765 0,-3.82031 -1.73828,-7.38281 -4.76172,-9.75391 -0.3125,-0.25 -0.37109,-0.70703 -0.12109,-1.02344 0.25,-0.3164 0.70703,-0.37109 1.01953,-0.12109 3.375,2.64453 5.3086,6.62109 5.3086,10.91016 0,0.0703 -0.0312,1.41015 -0.13282,2.6914 -0.0273,0.37891 -0.34375,0.66797 -0.71875,0.66797 z m 0,0"
         id="path17" />
    </g>
    <g
       clip-rule="nonzero"
       clip-path="url(#ae9a892e8d)"
       id="g18">
      <path
         style="fill:#f4d8cd;fill-opacity:1;fill-rule:nonzero;stroke:none"
         d="m 92.109375,180.55078 c -0.144531,0 -0.289063,-0.043 -0.414063,-0.13281 -0.328124,-0.23438 -0.40625,-0.6836 -0.179687,-1.01172 2.597656,-3.69922 6.839844,-5.90625 11.355465,-5.90625 2.20704,0 4.32032,0.50781 6.27344,1.5 0.35156,0.18359 0.4961,0.61328 0.3125,0.97656 -0.17969,0.35156 -0.61328,0.4961 -0.97265,0.31641 -1.75,-0.89063 -3.64063,-1.34375 -5.6211,-1.34375 -4.042968,0 -7.839842,1.97265 -10.164061,5.28906 -0.140625,0.20313 -0.363281,0.3125 -0.589844,0.3125 z m 0,0"
         id="path18" />
    </g>
    <path
       style="fill:#f4d8cd;fill-opacity:1;fill-rule:nonzero;stroke:none"
       d="m 89.949219,190.01953 c -0.316407,0 -0.613281,-0.21094 -0.699219,-0.52734 -0.246094,-0.87891 -0.246094,-2.07422 -0.246094,-2.125 0,-2.04297 0.433594,-4.01172 1.289063,-5.84766 0.171875,-0.35937 0.597656,-0.51953 0.964843,-0.34766 0.359376,0.16797 0.519532,0.59766 0.347657,0.96485 -0.765625,1.64062 -1.152344,3.39844 -1.152344,5.23047 0,0.28906 0.03125,1.16406 0.191406,1.73047 0.113281,0.38671 -0.113281,0.78515 -0.496093,0.89062 -0.06641,0.0195 -0.132813,0.0312 -0.199219,0.0312 z m 0,0"
       id="path19" />
    <path
       style="fill:#f4d8cd;fill-opacity:1;fill-rule:nonzero;stroke:none"
       d="m 98.855469,200.85937 c -0.144531,0 -0.292969,-0.043 -0.421875,-0.13281 -0.328125,-0.23047 -0.398438,-0.6875 -0.167969,-1.00781 0.394531,-0.55078 0.765625,-1.125 1.105469,-1.70703 0.199218,-0.34375 0.644536,-0.46875 0.992186,-0.26953 0.34375,0.19922 0.46485,0.64453 0.26563,0.99609 -0.35938,0.62109 -0.757816,1.23438 -1.175785,1.82422 -0.148437,0.19141 -0.371094,0.29687 -0.597656,0.29687 z m 0,0"
       id="path20" />
    <path
       style="fill:#f4d8cd;fill-opacity:1;fill-rule:nonzero;stroke:none"
       d="m 101.19922,196.68359 c -0.0937,0 -0.1875,-0.0156 -0.28125,-0.0547 -0.36719,-0.15625 -0.54297,-0.58204 -0.38281,-0.94922 1.91406,-4.50391 1.62109,-8.20703 1.61328,-8.2461 -0.0312,-0.39843 0.26172,-0.75 0.66015,-0.78125 0.39844,-0.0273 0.75,0.25782 0.78125,0.66016 0.0195,0.16406 0.32422,4.10156 -1.72265,8.93359 -0.11719,0.27344 -0.39063,0.4375 -0.66797,0.4375 z m 0,0"
       id="path21" />
    <g
       style="fill:#f4d8cd;fill-opacity:1"
       id="g23">
      <g
         transform="translate(124.91739,196.67541)"
         id="g22">
        <path
           style="stroke:none"
           d="m 12.15625,-4.140625 c 0.695312,0 1.375,-0.101563 2.03125,-0.3125 0.65625,-0.21875 1.140625,-0.421875 1.453125,-0.609375 l 0.46875,-0.328125 1.9375,3.90625 c -0.0625,0.054687 -0.152344,0.121094 -0.265625,0.203125 -0.117188,0.074219 -0.382812,0.21875 -0.796875,0.4375 -0.40625,0.21875 -0.851563,0.414062 -1.328125,0.578125 -0.46875,0.15625 -1.085938,0.296875 -1.84375,0.421875 -0.761719,0.132812 -1.546875,0.203125 -2.359375,0.203125 -1.875,0 -3.652344,-0.4570312 -5.328125,-1.375 -1.667969,-0.914063 -3.011719,-2.175781 -4.03125,-3.78125 -1.023438,-1.601563 -1.53125,-3.34375 -1.53125,-5.21875 0,-1.40625 0.296875,-2.757813 0.890625,-4.0625 0.601563,-1.300781 1.40625,-2.414063 2.40625,-3.34375 1,-0.925781 2.164063,-1.664063 3.5,-2.21875 1.332031,-0.550781 2.695313,-0.828125 4.09375,-0.828125 1.289063,0 2.484375,0.15625 3.578125,0.46875 1.101562,0.3125 1.882812,0.621094 2.34375,0.921875 l 0.671875,0.46875 -1.9375,3.890625 c -0.117187,-0.09375 -0.289063,-0.207031 -0.515625,-0.34375 -0.230469,-0.132812 -0.6875,-0.316406 -1.375,-0.546875 -0.679688,-0.226563 -1.367188,-0.34375 -2.0625,-0.34375 -1.105469,0 -2.09375,0.179687 -2.96875,0.53125 -0.875,0.355469 -1.574219,0.828125 -2.09375,1.421875 -0.511719,0.585938 -0.902344,1.214844 -1.171875,1.890625 -0.261719,0.667969 -0.390625,1.351563 -0.390625,2.046875 0,1.53125 0.570312,2.902344 1.71875,4.109375 1.144531,1.210937 2.78125,1.8125 4.90625,1.8125 z m 0,0"
           id="path22" />
      </g>
    </g>
    <g
       style="fill:#f4d8cd;fill-opacity:1"
       id="g25">
      <g
         transform="translate(143.25588,196.67541)"
         id="g24">
        <path
           style="stroke:none"
           d="m 6.046875,-20.09375 v 16.078125 h 6.90625 V 0 H 1.46875 v -20.09375 z m 0,0"
           id="path23" />
      </g>
    </g>
    <g
       style="fill:#f4d8cd;fill-opacity:1"
       id="g27">
      <g
         transform="translate(157.01583,196.67541)"
         id="g26">
        <path
           style="stroke:none"
           d="m 12.953125,-20.09375 v 4.015625 h -6.90625 v 4 h 6.625 V -8.0625 h -6.625 v 4.046875 h 6.90625 V 0 H 1.46875 v -20.09375 z m 0,0"
           id="path25" />
      </g>
    </g>
    <g
       style="fill:#f4d8cd;fill-opacity:1"
       id="g29">
      <g
         transform="translate(171.14109,196.67541)"
         id="g28">
        <path
           style="stroke:none"
           d="m 7.75,0 -8.4375,-20.09375 h 5.171875 l 5.0625,13.203125 5.0625,-13.203125 H 19.78125 L 11.34375,0 Z m 0,0"
           id="path27" />
      </g>
    </g>
    <g
       style="fill:#f4d8cd;fill-opacity:1"
       id="g31">
      <g
         transform="translate(190.23456,196.67541)"
         id="g30">
        <path
           style="stroke:none"
           d="m 12.953125,-20.09375 v 4.015625 h -6.90625 v 4 h 6.625 V -8.0625 h -6.625 v 4.046875 h 6.90625 V 0 H 1.46875 v -20.09375 z m 0,0"
           id="path29" />
      </g>
    </g>
    <g
       style="fill:#f4d8cd;fill-opacity:1"
       id="g33">
      <g
         transform="translate(204.35982,196.67541)"
         id="g32">
        <path
           style="stroke:none"
           d="m 1.46875,-20.09375 h 7.171875 c 1.9375,0 3.515625,0.515625 4.734375,1.546875 1.21875,1.03125 1.828125,2.507813 1.828125,4.421875 0,1.480469 -0.371094,2.71875 -1.109375,3.71875 -0.742188,0.992188 -1.746094,1.6875 -3.015625,2.09375 L 18,0 H 12.1875 L 6.046875,-7.9375 V 0 H 1.46875 Z m 4.578125,8.90625 h 0.53125 c 0.414063,0 0.769531,-0.0039 1.0625,-0.01563 0.300781,-0.01953 0.632813,-0.07813 1,-0.171875 0.375,-0.09375 0.675781,-0.226562 0.90625,-0.40625 0.226563,-0.1875 0.421875,-0.445312 0.578125,-0.78125 0.164062,-0.34375 0.25,-0.757812 0.25,-1.25 0,-0.488281 -0.08594,-0.898438 -0.25,-1.234375 -0.15625,-0.34375 -0.351562,-0.601563 -0.578125,-0.78125 -0.230469,-0.1875 -0.53125,-0.328125 -0.90625,-0.421875 -0.367187,-0.09375 -0.699219,-0.144531 -1,-0.15625 -0.292969,-0.01953 -0.648437,-0.03125 -1.0625,-0.03125 h -0.53125 z m 0,0"
           id="path31" />
      </g>
    </g>
    <g
       style="fill:#f4d8cd;fill-opacity:1"
       id="g35">
      <g
         transform="translate(221.79722,196.67541)"
         id="g34">
        <path
           style="stroke:none"
           d="m 8.859375,-20.46875 c 1.09375,0 2.15625,0.164062 3.1875,0.484375 1.039063,0.3125 1.816406,0.625 2.328125,0.9375 L 15.109375,-18.5625 13.25,-14.90625 C 13.101562,-15 12.898438,-15.125 12.640625,-15.28125 c -0.261719,-0.15625 -0.75,-0.363281 -1.46875,-0.625 -0.710937,-0.257812 -1.371094,-0.390625 -1.984375,-0.390625 -0.773438,0 -1.367188,0.164063 -1.78125,0.484375 C 7,-15.488281 6.796875,-15.050781 6.796875,-14.5 c 0,0.28125 0.09375,0.542969 0.28125,0.78125 0.195313,0.230469 0.53125,0.480469 1,0.75 0.476563,0.273438 0.894531,0.492188 1.25,0.65625 0.351563,0.15625 0.90625,0.398438 1.65625,0.71875 1.300781,0.554688 2.410156,1.304688 3.328125,2.25 0.914062,0.949219 1.375,2.027344 1.375,3.234375 0,1.148437 -0.210938,2.152344 -0.625,3.015625 -0.417969,0.867188 -0.984375,1.542969 -1.703125,2.03125 -0.71875,0.480469 -1.523437,0.835938 -2.40625,1.0625 -0.875,0.238281 -1.824219,0.359375 -2.84375,0.359375 C 7.234375,0.359375 6.375,0.269531 5.53125,0.09375 4.6875,-0.0820312 3.976562,-0.300781 3.40625,-0.5625 2.84375,-0.832031 2.332031,-1.097656 1.875,-1.359375 c -0.460938,-0.257813 -0.792969,-0.476563 -1,-0.65625 l -0.3125,-0.28125 2.28125,-3.84375 c 0.195312,0.167969 0.46875,0.375 0.8125,0.625 0.34375,0.25 0.945312,0.589844 1.8125,1.015625 0.863281,0.417969 1.628906,0.625 2.296875,0.625 1.9375,0 2.90625,-0.65625 2.90625,-1.96875 0,-0.28125 -0.07422,-0.535156 -0.21875,-0.765625 C 10.316406,-6.847656 10.070312,-7.082031 9.71875,-7.3125 9.375,-7.550781 9.066406,-7.738281 8.796875,-7.875 8.535156,-8.019531 8.097656,-8.234375 7.484375,-8.515625 6.878906,-8.796875 6.429688,-9.007812 6.140625,-9.15625 c -1.21875,-0.601562 -2.164063,-1.351562 -2.828125,-2.25 -0.667969,-0.90625 -1,-1.878906 -1,-2.921875 0,-1.800781 0.664062,-3.273437 2,-4.421875 1.332031,-1.144531 2.847656,-1.71875 4.546875,-1.71875 z m 0,0"
           id="path33" />
      </g>
    </g>
    <g
       style="fill:#f4d8cd;fill-opacity:1"
       id="g37">
      <g
         transform="translate(238.16305,196.67541)"
         id="g36">
        <path
           style="stroke:none"
           d="M -0.734375,-20.09375 H 4.78125 l 4.1875,6.421875 4.1875,-6.421875 h 5.5 L 11.25,-9.015625 V 0 H 6.671875 v -9.015625 z m 0,0"
           id="path35" />
      </g>
    </g>
    <g
       style="fill:#f4d8cd;fill-opacity:1"
       id="g39">
      <g
         transform="translate(256.08753,196.67541)"
         id="g38">
        <path
           style="stroke:none"
           d="M 6.046875,-12.46875 V 0 H 1.46875 V -20.09375 H 6.046875 L 14.03125,-7.625 h 0.04687 v -12.46875 h 4.57813 V 0 H 14.078125 L 6.09375,-12.46875 Z m 0,0"
           id="path37" />
      </g>
    </g>
    <g
       style="fill:#f4d8cd;fill-opacity:1"
       id="g41">
      <g
         transform="translate(276.20386,196.67541)"
         id="g40">
        <path
           style="stroke:none"
           d="m 12.15625,-4.140625 c 0.695312,0 1.375,-0.101563 2.03125,-0.3125 0.65625,-0.21875 1.140625,-0.421875 1.453125,-0.609375 l 0.46875,-0.328125 1.9375,3.90625 c -0.0625,0.054687 -0.152344,0.121094 -0.265625,0.203125 -0.117188,0.074219 -0.382812,0.21875 -0.796875,0.4375 -0.40625,0.21875 -0.851563,0.414062 -1.328125,0.578125 -0.46875,0.15625 -1.085938,0.296875 -1.84375,0.421875 -0.761719,0.132812 -1.546875,0.203125 -2.359375,0.203125 -1.875,0 -3.652344,-0.4570312 -5.328125,-1.375 -1.667969,-0.914063 -3.011719,-2.175781 -4.03125,-3.78125 -1.023438,-1.601563 -1.53125,-3.34375 -1.53125,-5.21875 0,-1.40625 0.296875,-2.757813 0.890625,-4.0625 0.601563,-1.300781 1.40625,-2.414063 2.40625,-3.34375 1,-0.925781 2.164063,-1.664063 3.5,-2.21875 1.332031,-0.550781 2.695313,-0.828125 4.09375,-0.828125 1.289063,0 2.484375,0.15625 3.578125,0.46875 1.101562,0.3125 1.882812,0.621094 2.34375,0.921875 l 0.671875,0.46875 -1.9375,3.890625 c -0.117187,-0.09375 -0.289063,-0.207031 -0.515625,-0.34375 -0.230469,-0.132812 -0.6875,-0.316406 -1.375,-0.546875 -0.679688,-0.226563 -1.367188,-0.34375 -2.0625,-0.34375 -1.105469,0 -2.09375,0.179687 -2.96875,0.53125 -0.875,0.355469 -1.574219,0.828125 -2.09375,1.421875 -0.511719,0.585938 -0.902344,1.214844 -1.171875,1.890625 -0.261719,0.667969 -0.390625,1.351563 -0.390625,2.046875 0,1.53125 0.570312,2.902344 1.71875,4.109375 1.144531,1.210937 2.78125,1.8125 4.90625,1.8125 z m 0,0"
           id="path39" />
      </g>
    </g>
    <g
       style="fill:#f4d8cd;fill-opacity:1"
       id="g43">
      <g
         transform="translate(215.33892,213.7986)"
         id="g42">
        <path
           style="stroke:none"
           d="M 4.875,0 H 0.859375 V -1.203125 H 2.21875 v -6 H 0.859375 V -8.40625 H 4.875 v 1.203125 H 3.515625 v 6 H 4.875 Z m 0,0"
           id="path41" />
      </g>
    </g>
    <g
       style="fill:#f4d8cd;fill-opacity:1"
       id="g45">
      <g
         transform="translate(222.58693,213.7986)"
         id="g44">
        <path
           style="stroke:none"
           d="m 4.15625,-6.4375 c 0.570312,0 1.015625,0.121094 1.328125,0.359375 0.3125,0.230469 0.53125,0.542969 0.65625,0.9375 0.125,0.386719 0.1875,0.820313 0.1875,1.296875 V 0 H 5.09375 v -3.75 c 0,-0.3125 -0.042969,-0.585938 -0.125,-0.828125 -0.085938,-0.238281 -0.226562,-0.425781 -0.421875,-0.5625 -0.1875,-0.132813 -0.453125,-0.1875 -0.796875,-0.15625 -0.3125,0 -0.59375,0.070313 -0.84375,0.203125 -0.25,0.136719 -0.449219,0.320312 -0.59375,0.546875 -0.148438,0.21875 -0.21875,0.464844 -0.21875,0.734375 V 0 H 0.859375 V -6.296875 H 2.09375 v 1 C 2.289062,-5.597656 2.570312,-5.863281 2.9375,-6.09375 3.300781,-6.320312 3.707031,-6.4375 4.15625,-6.4375 Z m 0,0"
           id="path43" />
      </g>
    </g>
    <g
       style="fill:#f4d8cd;fill-opacity:1"
       id="g47">
      <g
         transform="translate(231.23895,213.7986)"
         id="g46">
        <path
           style="stroke:none"
           d="m 4.15625,-6.4375 c 0.570312,0 1.015625,0.121094 1.328125,0.359375 0.3125,0.230469 0.53125,0.542969 0.65625,0.9375 0.125,0.386719 0.1875,0.820313 0.1875,1.296875 V 0 H 5.09375 v -3.75 c 0,-0.3125 -0.042969,-0.585938 -0.125,-0.828125 -0.085938,-0.238281 -0.226562,-0.425781 -0.421875,-0.5625 -0.1875,-0.132813 -0.453125,-0.1875 -0.796875,-0.15625 -0.3125,0 -0.59375,0.070313 -0.84375,0.203125 -0.25,0.136719 -0.449219,0.320312 -0.59375,0.546875 -0.148438,0.21875 -0.21875,0.464844 -0.21875,0.734375 V 0 H 0.859375 V -6.296875 H 2.09375 v 1 C 2.289062,-5.597656 2.570312,-5.863281 2.9375,-6.09375 3.300781,-6.320312 3.707031,-6.4375 4.15625,-6.4375 Z m 0,0"
           id="path45" />
      </g>
    </g>
    <g
       style="fill:#f4d8cd;fill-opacity:1"
       id="g49">
      <g
         transform="translate(239.89097,213.7986)"
         id="g48">
        <path
           style="stroke:none"
           d="m 6.90625,-3.15625 c 0,0.636719 -0.148438,1.203125 -0.4375,1.703125 -0.28125,0.492187 -0.667969,0.875 -1.15625,1.15625 C 4.832031,-0.015625 4.296875,0.125 3.703125,0.125 3.097656,0.125 2.550781,-0.015625 2.0625,-0.296875 1.570312,-0.578125 1.1875,-0.960938 0.90625,-1.453125 0.625,-1.953125 0.484375,-2.519531 0.484375,-3.15625 c 0,-0.632812 0.140625,-1.195312 0.421875,-1.6875 0.28125,-0.5 0.664062,-0.890625 1.15625,-1.171875 0.488281,-0.28125 1.035156,-0.421875 1.640625,-0.421875 0.59375,0 1.128906,0.140625 1.609375,0.421875 0.488281,0.28125 0.875,0.671875 1.15625,1.171875 0.289062,0.492188 0.4375,1.054688 0.4375,1.6875 z m -1.265625,0 c 0.00781,-0.425781 -0.074219,-0.800781 -0.25,-1.125 C 5.222656,-4.601562 4.988281,-4.851562 4.6875,-5.03125 4.394531,-5.207031 4.066406,-5.296875 3.703125,-5.296875 c -0.375,0 -0.714844,0.089844 -1.015625,0.265625 -0.292969,0.179688 -0.527344,0.429688 -0.703125,0.75 -0.167969,0.324219 -0.25,0.699219 -0.25,1.125 0,0.417969 0.082031,0.789062 0.25,1.109375 0.175781,0.324219 0.410156,0.578125 0.703125,0.765625 0.300781,0.179688 0.640625,0.265625 1.015625,0.265625 0.363281,0 0.691406,-0.085937 0.984375,-0.265625 0.300781,-0.1875 0.535156,-0.441406 0.703125,-0.765625 0.175781,-0.320313 0.257813,-0.691406 0.25,-1.109375 z m 0,0"
           id="path47" />
      </g>
    </g>
    <g
       style="fill:#f4d8cd;fill-opacity:1"
       id="g51">
      <g
         transform="translate(248.783,213.7986)"
         id="g50">
        <path
           style="stroke:none"
           d="m 1.59375,-6.296875 1.84375,4.5 1.90625,-4.5 H 6.609375 L 3.8125,0 H 2.921875 l -2.65625,-6.296875 z m 0,0"
           id="path49" />
      </g>
    </g>
    <g
       style="fill:#f4d8cd;fill-opacity:1"
       id="g53">
      <g
         transform="translate(257.17101,213.7986)"
         id="g52">
        <path
           style="stroke:none"
           d="M 6.734375,-6.296875 V 0 h -1.25 V -0.96875 C 5.296875,-0.707031 5.007812,-0.457031 4.625,-0.21875 4.25,0.0078125 3.816406,0.125 3.328125,0.125 2.796875,0.125 2.3125,-0.015625 1.875,-0.296875 1.4375,-0.578125 1.085938,-0.960938 0.828125,-1.453125 c -0.25,-0.5 -0.375,-1.070313 -0.375,-1.71875 0,-0.632813 0.128906,-1.195313 0.390625,-1.6875 0.269531,-0.5 0.632812,-0.882813 1.09375,-1.15625 0.46875,-0.28125 1,-0.421875 1.59375,-0.421875 0.4375,0 0.820312,0.101562 1.15625,0.296875 0.332031,0.1875 0.597656,0.414063 0.796875,0.671875 v -0.828125 z m -3.125,5.28125 c 0.382813,0 0.71875,-0.09375 1,-0.28125 0.289063,-0.1875 0.515625,-0.441406 0.671875,-0.765625 0.164062,-0.332031 0.25,-0.703125 0.25,-1.109375 0,-0.394531 -0.085938,-0.753906 -0.25,-1.078125 C 5.125,-4.570312 4.898438,-4.828125 4.609375,-5.015625 c -0.28125,-0.1875 -0.617187,-0.28125 -1,-0.28125 -0.367187,0 -0.695313,0.09375 -0.984375,0.28125 -0.28125,0.1875 -0.507812,0.445313 -0.671875,0.765625 -0.15625,0.3125 -0.234375,0.671875 -0.234375,1.078125 0,0.40625 0.078125,0.777344 0.234375,1.109375 0.164063,0.324219 0.390625,0.578125 0.671875,0.765625 0.289062,0.1875 0.617188,0.28125 0.984375,0.28125 z m 0,0"
           id="path51" />
      </g>
    </g>
    <g
       style="fill:#f4d8cd;fill-opacity:1"
       id="g55">
      <g
         transform="translate(266.27903,213.7986)"
         id="g54">
        <path
           style="stroke:none"
           d="M 2.875,0 H 1.640625 V -5.09375 H 0.34375 V -6.296875 H 1.640625 V -7.90625 H 2.875 v 1.609375 H 4.34375 V -5.09375 H 2.875 Z m 0,0"
           id="path53" />
      </g>
    </g>
    <g
       style="fill:#f4d8cd;fill-opacity:1"
       id="g57">
      <g
         transform="translate(272.39904,213.7986)"
         id="g56">
        <path
           style="stroke:none"
           d="m 1.6875,-7.671875 c -0.273438,0 -0.480469,-0.070313 -0.625,-0.21875 -0.136719,-0.144531 -0.203125,-0.332031 -0.203125,-0.5625 0,-0.195313 0.066406,-0.375 0.203125,-0.53125 0.144531,-0.164063 0.351562,-0.25 0.625,-0.25 0.28125,0 0.488281,0.074219 0.625,0.21875 0.132812,0.148437 0.203125,0.335937 0.203125,0.5625 0,0.199219 -0.070313,0.382813 -0.203125,0.546875 C 2.175781,-7.75 1.96875,-7.671875 1.6875,-7.671875 Z M 2.328125,0 H 1.09375 v -6.296875 h 1.234375 z m 0,0"
           id="path55" />
      </g>
    </g>
    <g
       style="fill:#f4d8cd;fill-opacity:1"
       id="g59">
      <g
         transform="translate(277.24706,213.7986)"
         id="g58">
        <path
           style="stroke:none"
           d="m 6.90625,-3.15625 c 0,0.636719 -0.148438,1.203125 -0.4375,1.703125 -0.28125,0.492187 -0.667969,0.875 -1.15625,1.15625 C 4.832031,-0.015625 4.296875,0.125 3.703125,0.125 3.097656,0.125 2.550781,-0.015625 2.0625,-0.296875 1.570312,-0.578125 1.1875,-0.960938 0.90625,-1.453125 0.625,-1.953125 0.484375,-2.519531 0.484375,-3.15625 c 0,-0.632812 0.140625,-1.195312 0.421875,-1.6875 0.28125,-0.5 0.664062,-0.890625 1.15625,-1.171875 0.488281,-0.28125 1.035156,-0.421875 1.640625,-0.421875 0.59375,0 1.128906,0.140625 1.609375,0.421875 0.488281,0.28125 0.875,0.671875 1.15625,1.171875 0.289062,0.492188 0.4375,1.054688 0.4375,1.6875 z m -1.265625,0 c 0.00781,-0.425781 -0.074219,-0.800781 -0.25,-1.125 C 5.222656,-4.601562 4.988281,-4.851562 4.6875,-5.03125 4.394531,-5.207031 4.066406,-5.296875 3.703125,-5.296875 c -0.375,0 -0.714844,0.089844 -1.015625,0.265625 -0.292969,0.179688 -0.527344,0.429688 -0.703125,0.75 -0.167969,0.324219 -0.25,0.699219 -0.25,1.125 0,0.417969 0.082031,0.789062 0.25,1.109375 0.175781,0.324219 0.410156,0.578125 0.703125,0.765625 0.300781,0.179688 0.640625,0.265625 1.015625,0.265625 0.363281,0 0.691406,-0.085937 0.984375,-0.265625 0.300781,-0.1875 0.535156,-0.441406 0.703125,-0.765625 0.175781,-0.320313 0.257813,-0.691406 0.25,-1.109375 z m 0,0"
           id="path57" />
      </g>
    </g>
    <g
       style="fill:#f4d8cd;fill-opacity:1"
       id="g61">
      <g
         transform="translate(286.13908,213.7986)"
         id="g60">
        <path
           style="stroke:none"
           d="m 4.15625,-6.4375 c 0.570312,0 1.015625,0.121094 1.328125,0.359375 0.3125,0.230469 0.53125,0.542969 0.65625,0.9375 0.125,0.386719 0.1875,0.820313 0.1875,1.296875 V 0 H 5.09375 v -3.75 c 0,-0.3125 -0.042969,-0.585938 -0.125,-0.828125 -0.085938,-0.238281 -0.226562,-0.425781 -0.421875,-0.5625 -0.1875,-0.132813 -0.453125,-0.1875 -0.796875,-0.15625 -0.3125,0 -0.59375,0.070313 -0.84375,0.203125 -0.25,0.136719 -0.449219,0.320312 -0.59375,0.546875 -0.148438,0.21875 -0.21875,0.464844 -0.21875,0.734375 V 0 H 0.859375 V -6.296875 H 2.09375 v 1 C 2.289062,-5.597656 2.570312,-5.863281 2.9375,-6.09375 3.300781,-6.320312 3.707031,-6.4375 4.15625,-6.4375 Z m 0,0"
           id="path59" />
      </g>
    </g>
    <g
       style="fill:#f4d8cd;fill-opacity:1"
       id="g63">
      <g
         transform="translate(294.7911,213.7986)"
         id="g62">
        <path
           style="stroke:none"
           d="M 4.5,-4.640625 C 4.269531,-4.867188 4.015625,-5.050781 3.734375,-5.1875 3.453125,-5.332031 3.191406,-5.40625 2.953125,-5.40625 c -0.167969,0 -0.335937,0.023438 -0.5,0.0625 C 2.285156,-5.3125 2.144531,-5.238281 2.03125,-5.125 1.925781,-5.019531 1.875,-4.863281 1.875,-4.65625 c 0.00781,0.292969 0.140625,0.5 0.390625,0.625 0.25,0.117188 0.5625,0.21875 0.9375,0.3125 0.332031,0.085938 0.648437,0.195312 0.953125,0.328125 0.3125,0.136719 0.570312,0.328125 0.78125,0.578125 0.207031,0.25 0.3125,0.605469 0.3125,1.0625 0,0.398438 -0.117188,0.734375 -0.34375,1.015625 C 4.6875,-0.460938 4.40625,-0.25 4.0625,-0.09375 3.71875,0.0507812 3.351562,0.125 2.96875,0.125 c -0.460938,0 -0.914062,-0.0859375 -1.359375,-0.25 -0.4375,-0.164062 -0.8125,-0.445312 -1.125,-0.84375 L 1.3125,-1.6875 c 0.21875,0.25 0.460938,0.445312 0.734375,0.578125 0.28125,0.136719 0.625,0.203125 1.03125,0.203125 0.144531,0 0.289063,-0.023438 0.4375,-0.078125 0.15625,-0.050781 0.285156,-0.132813 0.390625,-0.25 0.113281,-0.113281 0.171875,-0.269531 0.171875,-0.46875 0,-0.1875 -0.058594,-0.332031 -0.171875,-0.4375 C 3.789062,-2.253906 3.632812,-2.34375 3.4375,-2.40625 3.25,-2.476562 3.039062,-2.546875 2.8125,-2.609375 2.46875,-2.703125 2.128906,-2.816406 1.796875,-2.953125 1.460938,-3.097656 1.1875,-3.300781 0.96875,-3.5625 0.75,-3.820312 0.640625,-4.175781 0.640625,-4.625 c 0,-0.375 0.101563,-0.691406 0.3125,-0.953125 C 1.160156,-5.847656 1.4375,-6.054688 1.78125,-6.203125 2.125,-6.359375 2.492188,-6.4375 2.890625,-6.4375 c 0.375,0 0.78125,0.085938 1.21875,0.25 0.445313,0.15625 0.8125,0.414062 1.09375,0.765625 z m 0,0"
           id="path61" />
      </g>
    </g>
  </g>
</svg>
